<?xml version="1.0" standalone="no"?>
<!DOCTYPE svg PUBLIC "-//W3C//DTD SVG 20010904//EN"
 "http://www.w3.org/TR/2001/REC-SVG-20010904/DTD/svg10.dtd">
<svg version="1.0" xmlns="http://www.w3.org/2000/svg"
 width="595.000000pt" height="842.000000pt" viewBox="0 0 595.000000 842.000000"
 preserveAspectRatio="xMidYMid meet">

<g transform="translate(0.000000,842.000000) scale(0.100000,-0.100000)"
fill="#000000" stroke="none">
<path d="M2805 7609 c-186 -11 -350 -56 -529 -146 -191 -95 -320 -197 -446
-353 -102 -126 -136 -150 -211 -150 -111 0 -426 -49 -545 -86 -529 -160 -922
-590 -1046 -1145 -33 -147 -32 -424 1 -579 44 -209 118 -388 230 -556 100
-152 219 -268 450 -443 158 -118 308 -250 364 -319 126 -155 212 -332 291
-600 47 -159 52 -191 81 -446 41 -366 91 -513 214 -637 106 -106 190 -139 457
-178 308 -46 452 -55 839 -54 377 0 413 2 872 53 199 22 245 30 343 62 90 29
129 50 174 94 80 77 91 152 55 349 -29 161 -37 501 -15 653 33 223 110 418
220 559 79 101 276 254 519 401 111 68 227 142 257 165 251 188 443 482 532
817 28 106 31 131 35 320 4 181 2 217 -16 306 -85 413 -351 800 -691 1004
-205 123 -445 185 -822 210 -260 17 -288 32 -455 240 -80 100 -128 143 -249
223 -274 180 -565 256 -909 236z m305 -164 c316 -51 591 -205 760 -424 64 -84
126 -145 182 -183 l38 -25 -62 -29 c-174 -82 -418 -327 -418 -419 0 -45 29
-78 68 -78 38 0 54 12 102 83 86 127 246 251 403 314 243 97 624 63 910 -80
115 -58 185 -111 292 -218 203 -203 316 -398 383 -660 23 -90 26 -120 27 -286
0 -141 -4 -205 -18 -267 -55 -257 -170 -478 -346 -666 -93 -99 -171 -157 -371
-277 -204 -123 -302 -188 -375 -249 -197 -164 -428 -269 -640 -290 -89 -9
-103 -13 -122 -36 -13 -14 -23 -33 -23 -41 0 -30 31 -74 56 -80 55 -14 259 19
357 57 26 11 50 19 53 19 2 0 -6 -21 -20 -47 -75 -150 -135 -430 -136 -635 l0
-57 -37 -10 c-66 -18 -423 -79 -553 -95 -599 -75 -1073 -73 -1591 5 l-135 21
-17 141 c-24 199 -96 451 -183 636 -24 51 -44 95 -44 97 0 2 23 4 50 4 61 0
90 24 90 73 0 53 -26 68 -143 84 l-102 14 -74 80 c-69 75 -155 147 -441 369
-143 111 -259 229 -330 338 -106 159 -189 361 -227 549 -25 126 -25 416 1 533
101 466 427 863 852 1040 67 28 90 32 240 41 202 13 267 2 407 -68 115 -58
211 -151 280 -271 50 -87 77 -107 123 -96 29 8 54 40 54 72 0 57 -118 232
-212 314 -34 31 -94 74 -133 97 -42 25 -62 41 -50 41 33 0 117 54 160 102 22
24 65 75 95 112 107 132 269 249 460 332 67 30 85 33 170 34 52 0 138 -7 190
-15z m1114 -4817 c4 -46 16 -138 28 -206 27 -158 21 -174 -78 -223 -62 -31
-67 -32 -79 -15 -30 40 -90 278 -110 431 l-6 50 113 22 c62 11 116 21 119 22
3 1 9 -36 13 -81z m-394 -12 c0 -51 51 -296 79 -382 16 -49 27 -91 25 -93 -2
-3 -72 -11 -155 -19 -127 -13 -152 -13 -159 -2 -30 49 -90 289 -106 423 l-7
57 44 1 c33 1 206 25 272 38 4 0 7 -10 7 -23z m-1690 -22 c74 -10 136 -18 137
-19 2 -1 14 -66 27 -146 14 -79 36 -183 50 -232 14 -48 26 -91 26 -95 0 -14
-163 9 -205 28 -53 26 -133 105 -156 155 -18 41 -69 273 -69 315 0 19 4 22 28
17 15 -3 88 -13 162 -23z m1214 -31 c2 -10 7 -43 11 -73 9 -77 52 -268 75
-336 11 -32 18 -59 16 -62 -7 -6 -206 -21 -292 -21 l-72 -1 -20 48 c-29 67
-58 176 -82 311 -11 63 -20 118 -20 123 0 4 42 9 93 9 50 1 126 5 167 9 41 4
85 7 97 8 13 1 24 -5 27 -15z m-657 -9 l121 -7 7 -61 c9 -86 51 -282 75 -351
11 -32 20 -60 20 -62 0 -6 -296 -3 -328 3 -27 5 -34 15 -56 69 -14 34 -34 98
-45 141 -17 70 -24 106 -47 242 l-5 32 69 0 c38 0 123 -3 189 -6z"/>
<path d="M1422 6563 c-23 -9 -72 -91 -72 -121 0 -37 37 -72 76 -72 48 0 104
69 104 128 0 50 -58 85 -108 65z"/>
<path d="M4699 6511 c-34 -34 -36 -54 -10 -96 56 -92 110 -117 156 -70 33 32
32 73 -4 122 -57 79 -95 90 -142 44z"/>
<path d="M1080 6470 c-20 -20 -27 -74 -12 -96 29 -45 135 -69 166 -39 42 43
31 95 -27 130 -53 30 -100 32 -127 5z"/>
<path d="M4951 6453 c-36 -18 -67 -60 -77 -106 -11 -51 44 -104 95 -90 29 7
111 110 111 140 0 30 -42 73 -72 73 -13 0 -38 -8 -57 -17z"/>
<path d="M1461 6331 c-29 -29 -28 -81 2 -108 12 -12 43 -24 69 -28 42 -6 50
-4 72 18 18 18 26 37 26 60 0 47 -28 69 -94 75 -45 4 -57 1 -75 -17z"/>
<path d="M4673 6294 c-63 -32 -79 -81 -42 -128 52 -66 180 8 150 87 -17 45
-64 63 -108 41z"/>
<path d="M1221 6193 c-14 -16 -33 -48 -41 -72 -12 -37 -12 -47 1 -69 35 -63
111 -53 146 18 29 60 29 95 -2 125 -32 33 -70 32 -104 -2z"/>
<path d="M5323 5742 c-28 -18 -34 -64 -22 -177 10 -96 9 -122 -5 -195 -21
-104 -81 -256 -138 -353 -71 -118 -80 -149 -57 -201 14 -30 37 -40 56 -25 20
17 81 130 124 229 71 165 156 525 146 623 -7 76 -61 128 -104 99z"/>
<path d="M615 5668 c-15 -12 -34 -36 -41 -54 -21 -51 -18 -236 6 -353 24 -118
100 -344 142 -424 49 -91 126 -146 167 -120 34 21 24 64 -53 218 -132 264
-164 390 -138 545 17 106 11 161 -19 191 -24 24 -30 24 -64 -3z"/>
</g>
</svg>
