<?xml version="1.0" standalone="no"?>
<!DOCTYPE svg PUBLIC "-//W3C//DTD SVG 20010904//EN"
 "http://www.w3.org/TR/2001/REC-SVG-20010904/DTD/svg10.dtd">
<svg version="1.0" xmlns="http://www.w3.org/2000/svg"
 width="420.000000pt" height="594.000000pt" viewBox="0 0 420.000000 594.000000"
 preserveAspectRatio="xMidYMid meet">

<g transform="translate(0.000000,594.000000) scale(0.100000,-0.100000)"
fill="#000000" stroke="none">
<path d="M1880 5353 c-230 -41 -461 -178 -599 -357 -61 -79 -77 -87 -203 -97
-224 -18 -329 -44 -484 -120 -317 -157 -527 -454 -581 -823 -17 -112 -17 -116
6 -252 53 -326 174 -529 438 -734 279 -218 345 -288 424 -449 47 -96 102 -257
118 -346 6 -33 18 -123 27 -200 21 -188 38 -267 78 -350 53 -111 137 -179 253
-205 215 -49 630 -76 923 -60 230 12 528 44 620 67 123 30 188 79 210 157 11
39 10 57 -6 133 -15 71 -19 132 -19 308 0 200 2 227 23 300 29 99 79 204 129
270 56 73 196 181 376 293 87 53 187 121 222 150 272 225 423 655 345 985 -50
215 -141 385 -289 540 -195 205 -375 276 -771 307 -181 14 -211 29 -307 149
-82 101 -157 163 -277 227 -207 110 -432 147 -656 107z m365 -112 c175 -36
353 -132 442 -239 26 -31 80 -89 119 -128 l71 -71 -52 -27 c-107 -56 -248
-194 -274 -267 -8 -24 -6 -33 13 -55 30 -35 55 -26 101 36 55 74 150 157 224
195 111 55 171 69 301 68 143 -1 274 -32 407 -98 154 -76 314 -244 402 -420
123 -248 125 -544 7 -800 -84 -181 -205 -312 -401 -430 -173 -105 -236 -147
-323 -216 -125 -101 -338 -189 -454 -189 -69 0 -98 -59 -49 -98 21 -18 140 -8
224 18 34 11 65 20 69 20 4 0 -2 -19 -12 -42 -39 -88 -71 -224 -82 -348 -6
-69 -12 -126 -13 -127 -3 -6 -302 -57 -433 -73 -361 -46 -723 -47 -1038 -4
-159 22 -164 24 -164 72 0 107 -73 380 -134 500 -14 28 -26 56 -26 62 0 5 15
10 34 10 50 0 77 44 48 80 -13 16 -36 24 -90 31 -73 10 -74 11 -133 73 -32 35
-136 123 -229 196 -227 177 -286 242 -368 406 -87 172 -117 311 -109 504 6
157 26 238 92 379 101 211 259 373 470 477 85 43 96 45 210 54 96 7 133 6 184
-6 129 -30 226 -101 307 -225 23 -37 48 -70 54 -74 20 -12 60 5 72 30 9 20 5
34 -27 92 -45 79 -153 190 -214 218 l-42 18 48 26 c30 17 74 58 122 115 88
104 171 169 296 231 85 43 94 45 175 45 47 0 126 -9 175 -19z m735 -3363 c0
-18 7 -84 17 -145 18 -127 14 -152 -34 -176 -69 -36 -69 -36 -98 54 -26 82
-60 257 -52 265 4 5 130 31 155 33 7 1 12 -12 12 -31z m-275 -55 c16 -96 47
-236 61 -269 8 -20 13 -38 10 -41 -6 -6 -136 -22 -184 -23 -29 0 -35 5 -48 36
-21 50 -52 177 -60 246 l-7 56 44 6 c24 4 69 10 99 15 30 5 60 9 67 10 7 0 15
-16 18 -36z m-1193 6 l97 -12 6 -41 c13 -86 37 -200 51 -239 21 -60 21 -60
-48 -53 -76 9 -103 22 -155 79 -33 36 -44 58 -58 118 -9 41 -19 96 -22 123 -6
44 -4 48 13 43 10 -3 63 -11 116 -18z m867 -96 c7 -49 24 -126 38 -172 13 -46
22 -85 21 -86 -2 -2 -60 -6 -129 -10 l-127 -8 -21 58 c-24 65 -68 272 -59 281
5 5 49 9 243 23 19 1 22 -9 34 -86z m-468 67 l76 0 12 -81 c12 -77 41 -204 56
-241 7 -17 -2 -18 -105 -18 -61 0 -119 4 -129 10 -18 9 -41 61 -61 139 -19 73
-37 190 -31 197 3 3 29 3 56 0 28 -3 84 -6 126 -6z"/>
<path d="M984 4604 c-39 -41 -42 -66 -14 -94 27 -27 46 -25 81 9 36 37 39 83
7 105 -31 22 -36 21 -74 -20z"/>
<path d="M3316 4594 c-24 -24 -19 -56 15 -97 34 -41 66 -48 92 -19 25 27 21
53 -14 95 -33 40 -67 48 -93 21z"/>
<path d="M768 4568 c-36 -28 -23 -77 27 -101 41 -20 80 -10 90 22 10 33 -2 56
-40 74 -43 20 -56 21 -77 5z"/>
<path d="M3477 4540 c-16 -13 -29 -36 -33 -57 -6 -31 -3 -39 16 -55 30 -25 47
-23 77 10 52 55 57 69 39 97 -21 31 -63 33 -99 5z"/>
<path d="M1024 4455 c-30 -45 5 -85 75 -85 34 0 51 17 51 51 0 57 -94 82 -126
34z"/>
<path d="M3276 4425 c-28 -26 -29 -51 -4 -82 18 -23 65 -15 87 13 26 33 26 49
1 74 -27 27 -51 25 -84 -5z"/>
<path d="M865 4373 c-38 -37 -46 -106 -16 -123 35 -18 60 -11 81 23 25 40 25
79 2 100 -24 21 -46 21 -67 0z"/>
<path d="M3750 4045 c-13 -15 -15 -106 -5 -157 14 -65 -35 -227 -106 -348 -49
-83 -56 -113 -35 -145 9 -14 22 -22 30 -19 19 7 86 138 119 229 35 99 77 292
77 356 0 82 -44 127 -80 84z"/>
<path d="M427 3992 c-40 -44 -46 -116 -22 -253 16 -90 69 -258 103 -325 20
-39 74 -94 92 -94 54 0 52 46 -9 162 -91 172 -114 269 -97 408 9 75 -3 120
-32 120 -10 0 -26 -8 -35 -18z"/>
</g>
</svg>
